<svg width="24" height="24" viewBox="0 0 24 24" fill="none" xmlns="http://www.w3.org/2000/svg">
<path d="M7.03962 16.9604C4.48221 14.398 2.51546 11.3079 1.27693 7.90609C0.595538 6.04624 1.21985 4.00325 2.62068 2.60241L3.48759 1.7367C3.72065 1.50317 3.99748 1.31789 4.30223 1.19148C4.60698 1.06507 4.93367 1 5.2636 1C5.59353 1 5.92022 1.06507 6.22498 1.19148C6.52973 1.31789 6.80656 1.50317 7.03962 1.7367L9.06952 3.76661C9.30305 3.99967 9.48833 4.2765 9.61474 4.58125C9.74115 4.886 9.80622 5.21269 9.80622 5.54263C9.80622 5.87256 9.74115 6.19925 9.61474 6.504C9.48833 6.80875 9.30305 7.08558 9.06952 7.31864L8.57007 7.81809C8.37016 8.01797 8.21157 8.25527 8.10338 8.51644C7.99518 8.77761 7.93949 9.05753 7.93949 9.34023C7.93949 9.62292 7.99518 9.90285 8.10338 10.164C8.21157 10.4252 8.37016 10.6625 8.57007 10.8624L13.1365 15.4299C13.3363 15.6299 13.5736 15.7884 13.8348 15.8966C14.096 16.0048 14.3759 16.0605 14.6586 16.0605C14.9413 16.0605 15.2212 16.0048 15.4824 15.8966C15.7436 15.7884 15.9809 15.6299 16.1807 15.4299L16.6814 14.9305C16.9144 14.697 17.1913 14.5117 17.496 14.3853C17.8008 14.2589 18.1274 14.1938 18.4574 14.1938C18.7873 14.1938 19.114 14.2589 19.4188 14.3853C19.7235 14.5117 20.0003 14.697 20.2334 14.9305L22.2633 16.9604C22.4968 17.1935 22.6821 17.4703 22.8085 17.775C22.9349 18.0798 23 18.4065 23 18.7364C23 19.0663 22.9349 19.393 22.8085 19.6978C22.6821 20.0025 22.4968 20.2794 22.2633 20.5124L21.3976 21.3781C19.9968 22.7802 17.9538 23.4045 16.0939 22.7231C12.6921 21.4846 9.60199 19.5178 7.03962 16.9604Z" stroke="#D95E02" stroke-width="1.5" stroke-linejoin="round"/>
</svg>
