<svg width="83" height="75" viewBox="0 0 83 75" fill="none" xmlns="http://www.w3.org/2000/svg">
<path fill-rule="evenodd" clip-rule="evenodd" d="M8.35688 70.3181L8.70736 69.8088C9.94323 67.3635 10.5507 61.8486 8.50724 59.6885C7.41703 58.5362 6.70666 57.6134 5.87146 56.198C0.795082 47.5965 3.42817 37.7287 11.1923 31.667C13.2972 30.0238 15.842 28.4943 18.5589 27.5874C27.083 24.7414 35.9974 25.2425 43.4337 30.4045L46.5553 32.9255C48.9701 35.2933 50.8933 38.4833 51.8471 41.8209C53.2432 46.7066 52.4216 51.2057 50.2484 55.5688C47.3045 61.4788 40.3202 65.9221 33.7636 67.1358C29.6748 67.8928 26.2666 67.8807 22.2332 67.082C21.199 66.8772 20.3004 66.6739 19.3446 66.4239C16.5883 65.7025 16.8065 64.8198 14.7122 66.9467C12.7805 68.9082 11.0839 69.4657 8.87946 70.3034C8.8445 70.3166 8.79632 70.3379 8.7654 70.3504C8.73492 70.3627 8.67867 70.3903 8.65425 70.4006C8.63005 70.4109 8.57895 70.4309 8.54511 70.4526L8.3571 70.3181H8.35688ZM82.5438 23.2783V25.6096C82.3031 29.7448 80.7819 33.7285 78.0303 37.5649C76.5652 39.608 76.095 38.8985 76.095 41.2721C76.095 47.873 79.3193 48.2179 79.3193 49.8165C79.3193 50.8023 78.8998 51.59 77.8683 51.59C73.7185 51.59 70.7701 50.5621 67.6138 48.4633C64.3277 46.2781 66.7649 46.478 62.9955 47.3576C62.1607 47.5523 61.6083 47.6641 60.7102 47.8129C59.1883 48.0653 57.425 48.3653 55.7812 48.3653C55.7494 49.7901 55.1583 52.2652 54.7571 53.4675C54.2518 54.9823 53.6053 56.4421 52.8501 57.6867C52.0167 59.0602 51.3023 60.0719 50.3241 61.287C48.6022 63.4257 45.9958 65.4414 43.6392 66.8546C36.9854 70.8441 29.4115 71.7402 21.696 70.3594C15.9308 69.3277 18.1329 68.6413 15.9639 70.2942C14.5813 71.3479 13.73 71.8021 12.1465 72.603C11.2932 73.0346 3.22447 75.909 3.22447 72.7092C3.22447 71.3815 3.62202 71.5567 4.28712 70.7087C6.03684 68.4783 6.9489 65.1098 6.31606 62.524C6.10474 61.6599 5.59493 61.5617 4.44309 60.0439C3.56151 58.8818 2.98962 57.8915 2.31062 56.5337C0.408297 52.7291 0 50.3494 0 45.7858C0 40.7589 2.65236 35.873 5.52882 32.452C10.0988 27.0171 19.5626 22.5704 26.7621 22.5704C26.8472 18.7523 28.7711 14.4432 30.8879 11.3806C32.93 8.4259 35.741 5.95886 38.7829 4.12107C39.9504 3.41563 41.4554 2.66312 42.7673 2.14031C47.4275 0.283029 50.2177 0 55.2976 0C64.5596 0 75.5675 5.95841 79.6418 13.5419C80.0409 14.285 80.4147 14.8448 80.7477 15.6603C81.8069 18.2537 82.4015 20.7925 82.5433 23.2779L82.5438 23.2783ZM54.1696 3.2247C60.3534 3.2247 66.4864 5.37465 71.2605 9.02669C75.2289 12.0625 78.178 16.4029 79.0224 21.417C79.5472 24.5337 79.307 26.2276 78.5482 29.2155C78.1625 30.7337 77.421 32.3306 76.7333 33.5268C74.1105 38.0893 72.7097 36.6849 72.7097 42.2393C72.7097 44.3395 73.4312 46.5033 74.1607 47.882C72.0365 47.3872 69.3879 45.9532 67.9121 44.4576C65.651 42.1658 66.4017 43.1352 61.265 44.337C59.7015 44.7027 57.6959 44.9802 55.7819 44.9802C55.3115 39.327 53.0278 35.2055 49.5331 31.3992C49.2362 31.0759 49.1349 30.83 48.7835 30.5367C48.1762 30.0291 47.6529 29.6403 47.2375 29.0198H65.1326C66.0673 29.0198 67.1262 29.0682 68.0436 29.0288C69.335 28.9734 69.6468 28.2693 69.6468 27.2463C69.6468 25.4025 67.4466 25.7953 65.6165 25.7953L43.5274 25.7976C41.264 25.8135 41.5903 25.3732 39.3149 24.5286C36.9366 23.6458 32.7933 22.5709 30.1486 22.5709C30.1486 19.4044 32.1733 15.0687 33.854 12.8954L36.4566 10.0167C39.1262 7.79597 40.9967 6.21567 44.878 4.89576C47.7923 3.90482 50.9798 3.22492 54.1698 3.22492L54.1696 3.2247Z" fill="#F86B21"/>
<path fill-rule="evenodd" clip-rule="evenodd" d="M12.8979 53.0406C12.8979 54.0264 13.3175 54.8141 14.349 54.8141H41.4335C43.3809 54.8141 43.3809 51.5898 41.4335 51.5898H14.349C13.5521 51.5898 12.8979 52.244 12.8979 53.0408V53.0406Z" fill="#F86B21"/>
<path fill-rule="evenodd" clip-rule="evenodd" d="M19.3467 43.3678C19.3467 44.3536 19.7662 45.1412 20.7977 45.1412H41.4335C43.3809 45.1412 43.3809 41.917 41.4335 41.917H20.7977C20.0008 41.917 19.3467 42.5711 19.3467 43.368V43.3678Z" fill="#F86B21"/>
<path fill-rule="evenodd" clip-rule="evenodd" d="M46.1086 17.5738C46.1086 18.5596 46.5281 19.3473 47.5596 19.3473H68.1955C70.1428 19.3473 70.1428 16.123 68.1955 16.123H47.5596C46.7628 16.123 46.1086 16.7772 46.1086 17.574V17.5738Z" fill="#F86B21"/>
<path fill-rule="evenodd" clip-rule="evenodd" d="M39.6599 17.573C39.6599 19.9842 42.8842 19.9842 42.8842 17.573C42.8842 15.6254 39.6599 15.6254 39.6599 17.573Z" fill="#F86B21"/>
<path fill-rule="evenodd" clip-rule="evenodd" d="M12.8979 43.3679C12.8979 45.7792 16.1222 45.7792 16.1222 43.3679C16.1222 41.4203 12.8979 41.4203 12.8979 43.3679Z" fill="#F86B21"/>
</svg>
