<svg width="90" height="69" viewBox="0 0 90 69" fill="none" xmlns="http://www.w3.org/2000/svg">
<path fill-rule="evenodd" clip-rule="evenodd" d="M40.4408 59.3633H60.4759C61.4518 59.3633 60.7031 61.0966 62.7511 63.9518C63.1189 64.4642 63.5143 64.8506 63.815 65.2996H37.1016C38.2204 63.6294 38.8263 63.4947 39.6349 60.9687C39.8802 60.2014 39.7274 59.3633 40.4408 59.3633ZM63.815 57.8794C63.815 49.955 74.8763 47.6812 77.9732 54.8514C78.8312 56.8373 78.8344 58.7311 78.0286 60.7773C77.4032 62.3659 75.9266 63.8484 74.3929 64.5617C72.4129 65.4828 70.291 65.4606 68.3391 64.671C65.6789 63.5949 63.8145 60.702 63.8145 57.8794H63.815ZM22.2609 57.8794C22.2609 49.955 33.3222 47.6812 36.4191 54.8514C39.1179 61.0993 32.9281 67.3095 26.6512 64.6193C24.0649 63.511 22.2609 60.6412 22.2609 57.8794ZM63.815 26.7141H73.2759C73.9462 26.7141 81.8611 35.0208 82.9685 36.1287C84.6283 37.789 86.0759 38.5309 86.0759 40.071H63.815V26.7145V26.7141ZM41.5541 20.7778H48.9742V43.0387H51.9424V20.7778H66.5977C67.8765 20.7778 68.1178 21.2658 68.7781 21.9365C69.3908 22.5591 70.0261 23.048 70.4937 23.7459C68.4525 23.7459 66.4076 23.7582 64.3669 23.741C62.1942 23.7224 60.8473 24.9214 60.8473 26.3431V40.442C60.8473 41.6002 62.2858 43.0391 63.4445 43.0391H86.0763V54.7263C86.0763 56.8024 83.5975 56.3956 81.9953 56.3956C81.286 56.3956 81.442 55.6541 81.2321 54.9326C80.0357 50.8221 76.1139 47.4911 71.7925 47.4911C66.55 47.4911 62.7062 50.2144 61.2845 54.792C61.0477 55.5548 61.1797 56.3956 60.4763 56.3956H40.4412C39.5383 56.3956 40.0471 55.08 39.0199 53.1794C34.4138 44.655 22.4378 46.0735 19.7304 54.7925C19.1599 56.6291 20.1938 56.396 16.5105 56.396C15.5936 56.396 14.8407 55.6432 14.8407 54.7267V41.5557H11.8726V55.2832C11.8726 56.5924 12.8036 57.9506 13.6444 58.5202C15.1169 59.5179 15.711 59.3928 18.0053 59.3533C20.7698 59.3061 18.3667 59.873 21.1194 63.8448C21.4872 64.3758 21.9425 64.8248 22.2609 65.3005H0V68.2686H71.7916C76.0626 68.2686 79.6611 65.183 81.0928 61.2449C81.2747 60.7446 81.4244 59.7791 81.6239 59.3642C83.7776 59.3642 85.3934 59.6195 86.8165 58.8059C87.8754 58.2005 89.044 56.9235 89.044 55.2832V38.5876C89.044 37.4724 85.0188 33.9134 84.0819 32.976L73.4151 22.3093C71.2506 20.1447 69.6139 17.8105 67.1541 17.8105H41.5541V20.7787V20.7778Z" fill="#F86B21"/>
<path fill-rule="evenodd" clip-rule="evenodd" d="M2.96815 19.2927C2.96815 17.0801 3.70055 14.3587 4.39803 12.7456C5.21025 10.8667 6.36123 9.25455 7.71628 7.90131C13.4136 2.21171 21.7407 1.40358 28.458 5.86102C30.7767 7.39974 32.8501 9.86133 34.0732 12.4894C39.6938 24.566 28.8725 38.1805 15.6942 35.1348C14.4789 34.8541 13.5827 34.5639 12.6168 34.1308C10.0255 32.9685 7.43829 30.8447 5.93539 28.5686C4.15994 25.8794 2.96815 22.6568 2.96815 19.2923V19.2927ZM0 18.5508C0 22.1716 0.294321 24.4681 1.85209 27.6435C4.85969 33.7739 11.4703 38.5855 18.1799 38.5855H20.0351C25.3959 38.5855 30.2543 35.6953 32.9753 32.9748C35.6958 30.2543 38.5859 25.3955 38.5859 20.0347C38.5859 16.4139 38.2916 14.1174 36.7339 10.942C33.7263 4.81162 27.1156 0 20.4061 0H18.5508C8.83506 0 0 8.83506 0 18.5508Z" fill="#F86B21"/>
<path fill-rule="evenodd" clip-rule="evenodd" d="M11.8727 16.3248C11.8727 8.54324 22.6755 6.07303 25.9756 13.1671C27.7229 16.9234 25.8069 20.1827 23.7825 23.2257C23.0727 24.2928 22.427 25.1268 21.6796 26.1317C21.1803 26.8029 19.9436 28.3185 19.2933 28.7543C18.3464 28.1203 16.6979 25.8669 15.9265 24.8864C14.8204 23.4806 13.8499 21.75 13.0477 20.1596C12.7303 19.5306 12.528 19.2163 12.3162 18.4794C12.1861 18.0277 11.8731 16.7166 11.8731 16.3253L11.8727 16.3248ZM8.90454 15.7684C8.90454 20.4317 11.6473 24.5227 14.2259 27.6995C19.3704 34.0371 19.0126 34.4412 24.2777 27.8024C26.9234 24.4669 29.6816 20.5052 29.6816 15.7684C29.6816 10.7132 24.9049 5.93652 19.8497 5.93652H18.7368C13.6817 5.93652 8.90499 10.7132 8.90499 15.7684H8.90454Z" fill="#F86B21"/>
<path fill-rule="evenodd" clip-rule="evenodd" d="M17.809 16.325C17.809 14.4507 20.7771 14.4507 20.7771 16.325C20.7771 18.1994 17.809 18.1994 17.809 16.325ZM14.8408 15.9541C14.8408 22.4205 23.7453 22.4205 23.7453 15.9541C23.7453 13.6834 21.7952 11.873 18.9219 11.873C16.8811 11.873 14.8408 13.9133 14.8408 15.9541Z" fill="#F86B21"/>
<path fill-rule="evenodd" clip-rule="evenodd" d="M0 54.9105H7.42015V51.9424H0V54.9105Z" fill="#F86B21"/>
<path fill-rule="evenodd" clip-rule="evenodd" d="M56.3945 48.974H62.3308V46.0059H56.3945V48.974Z" fill="#F86B21"/>
<path fill-rule="evenodd" clip-rule="evenodd" d="M2.96826 48.974H7.42026V46.0059H2.96826V48.974Z" fill="#F86B21"/>
<path fill-rule="evenodd" clip-rule="evenodd" d="M4.4519 43.0385H7.42005V40.0703H4.4519V43.0385Z" fill="#F86B21"/>
<path fill-rule="evenodd" clip-rule="evenodd" d="M28.1973 59.3627H31.1654V56.3945H28.1973V59.3627Z" fill="#F86B21"/>
<path fill-rule="evenodd" clip-rule="evenodd" d="M69.7512 59.3627H72.7194V56.3945H69.7512V59.3627Z" fill="#F86B21"/>
</svg>
