<svg width="86" height="86" viewBox="0 0 86 86" fill="none" xmlns="http://www.w3.org/2000/svg">
<path fill-rule="evenodd" clip-rule="evenodd" d="M25.8666 79.7838C25.8666 75.5834 25.6816 73.9559 27.6573 69.985C28.6416 68.0062 29.7298 66.7689 31.1973 65.2944C32.4166 64.0688 34.4383 62.7777 36.1822 62.0494C44.6571 58.5087 54.1734 61.9831 58.2863 69.8718C60.2784 73.692 60.1317 75.663 60.1317 79.7838C60.1317 80.7806 59.5017 81.95 58.8944 82.4097C58.0982 83.0124 57.2661 83.3113 55.9328 83.3113H30.0662C27.733 83.3113 25.8674 82.0304 25.8674 79.7838H25.8666ZM71.2177 63.3234C75.7428 63.3234 79.4186 65.6691 81.6675 68.9983C82.068 69.5916 83.3115 71.938 83.3115 72.7296C83.3115 73.8419 82.2179 74.5772 80.7917 74.5772H63.1549C62.5187 74.5772 62.6226 73.8544 62.4836 73.233C62.3595 72.6773 62.2315 72.2214 62.0449 71.6562C61.8341 71.0169 61.2253 69.3527 60.803 68.8664C61.9442 67.1616 63.0644 66.1203 64.8636 65.0329C66.4397 64.0806 68.7338 63.3234 71.2169 63.3234H71.2177ZM22.8433 74.5772H5.20653C3.78038 74.5772 2.68677 73.8419 2.68677 72.7296C2.68677 71.0575 5.16984 67.5792 6.76695 66.228C12.2662 61.5733 20.9777 62.5693 25.1945 68.8664C24.5193 69.6439 23.7387 72.2284 23.5146 73.233C23.3757 73.8544 23.4795 74.5772 22.8433 74.5772ZM65.5069 54.9249C65.5069 49.9908 71.2934 47.439 74.956 50.6824C78.7021 53.9999 76.4524 60.7576 70.9484 60.5202C67.9181 60.3891 65.5061 57.9919 65.5061 54.9249H65.5069ZM9.23831 55.597C9.23831 53.6916 9.27422 52.3224 10.9556 50.7636C14.5292 47.4507 20.4922 49.862 20.4922 54.9249C20.4922 59.2167 15.5049 62.4538 11.1516 59.226C10.353 58.6335 9.23831 56.91 9.23831 55.5962V55.597ZM34.9371 49.7184C34.9371 41.6915 46.3947 38.4372 50.2821 46.4672C52.9174 51.9103 48.3735 57.7811 43.8398 57.7811C41.2155 57.7811 39.0485 57.5415 37.0791 55.3035C35.9519 54.0218 34.9371 52.0656 34.9371 49.7191V49.7184ZM32.2495 49.0463C32.2495 52.3138 32.8069 54.9202 35.1455 57.2363C36.2321 58.3127 36.6131 58.3143 36.7848 58.9567C33.7186 59.212 27.3076 64.5575 26.8751 66.1796H26.5395C26.3591 65.5036 25.7838 65.1742 25.3233 64.7082C23.5342 62.9003 21.9238 62.4116 20.1565 61.4765C20.4953 61.0136 21.7934 60.3196 22.7762 57.7132C24.8276 52.2748 20.276 46.5273 15.6213 46.5273C12.6003 46.5273 11.0516 46.8325 8.77542 49.0869C5.75685 52.0758 5.59293 57.077 8.27818 60.2533C8.70283 60.756 9.22504 60.9629 9.40692 61.6443C7.51866 61.8012 4.66792 64.4318 3.39867 65.7143C1.91944 67.2084 0.000732422 70.5017 0.000732422 72.8982C0.000732422 75.2759 1.98969 77.2656 4.36817 77.2656H23.0127C23.0127 79.8783 22.8964 81.8828 24.6496 83.8585C25.5879 84.9155 27.1429 85.9997 29.0592 85.9997H56.9414C60.3534 85.9997 62.9879 82.7922 62.9879 79.2811V77.2656H81.6324C84.1085 77.2656 85.9999 75.3227 85.9999 72.5625C85.9999 69.4659 82.5894 65.228 80.0502 63.3952C79.3531 62.8917 77.5187 61.7224 76.5937 61.6451C76.8708 60.6069 79.6169 59.4813 79.6169 54.7587C79.6169 50.4107 75.7256 46.5281 71.7227 46.5281C69.0414 46.5281 68.0688 46.6818 65.8402 48.3718C64.6833 49.2492 63.6623 50.7363 63.1736 52.2561C62.3244 54.8968 62.7131 57.4642 64.2634 59.6983C65.3742 61.2985 65.4709 60.9683 65.8441 61.4773C64.2072 62.3437 62.4859 62.8894 60.7608 64.6238C60.2784 65.1086 59.6485 65.4809 59.4619 66.1804H59.1263C58.857 65.171 55.6776 62.3507 54.9282 61.8121C53.6738 60.9121 50.7926 59.0886 49.2166 58.9575C49.3813 58.3408 49.7934 58.2924 50.7715 57.3206C51.4678 56.629 51.6161 56.3604 52.1743 55.5322C54.1757 52.5613 54.2764 48.1704 52.6364 44.9567C50.0448 39.8805 44.3144 37.6683 38.7277 39.9016C37.5568 40.3699 36.4421 41.1903 35.571 41.9514C34.7506 42.668 33.8802 43.9575 33.3689 44.9567C32.8092 46.0511 32.2526 47.4757 32.2526 49.0478L32.2495 49.0463Z" fill="#F86B21"/>
<path fill-rule="evenodd" clip-rule="evenodd" d="M7.72635 32.082C7.76928 30.1485 9.76761 26.8606 8.76454 25.333C8.28526 24.6031 4.67968 22.1559 4.19961 21.4995C5.66791 21.4995 6.43446 21.3191 7.89652 21.3332C11.4233 21.3675 11.04 20.4933 12.118 17.8283C12.3623 17.2234 13.043 15.6512 13.1015 14.9487C13.7338 15.4124 14.7509 19.4512 15.4191 20.3574C16.0358 21.1942 16.8882 21.3441 18.305 21.3348C19.8537 21.3246 20.7085 21.4987 22.1721 21.4987C21.4633 22.5564 18.3963 24.3713 17.7008 25.4274C16.9187 26.6147 18.2667 29.7348 18.8132 32.0805C17.7555 31.7979 14.4785 28.9026 13.2717 28.8894C12.2796 28.8784 9.16265 31.3217 7.72791 32.0805L7.72635 32.082ZM8.90193 18.477L3.64929 18.7674C2.38316 18.9399 0 18.2608 0 20.9968C0 22.2379 3.50332 24.5813 4.51341 25.3861C5.07778 25.8357 5.63981 26.322 6.21511 26.7076C5.83262 28.3476 4.09423 33.6346 4.34636 34.6096C4.4736 35.1021 4.63206 35.3777 4.99972 35.6486C6.53828 36.782 7.98082 35.3277 10.3804 33.7283C13.3646 31.7385 12.9603 31.6316 14.4122 32.6191C15.7548 33.5324 17.0092 34.2872 18.376 35.2067C18.9911 35.6205 19.6429 36.227 20.5633 36.0232C23.126 35.455 21.927 32.6628 21.3126 30.5911C20.9684 29.4303 20.6101 28.1002 20.3252 26.8754C20.7327 26.2673 22.8395 24.6874 23.5686 24.0715C24.6044 23.1965 26.5403 22.0357 26.5403 20.996C26.5403 20.0538 26.1547 19.5011 25.563 19.1179C24.8948 18.6846 21.4688 18.6651 20.3189 18.6511C19.3034 18.6386 18.6851 18.4762 17.4705 18.4762C17.4136 17.7924 17.0131 16.965 16.7735 16.3179C16.5151 15.6184 16.2255 14.919 15.9335 14.1345C15.4831 12.9254 14.9227 10.582 13.4395 10.582C11.3148 10.582 10.7933 13.3789 9.76917 16.15C9.49908 16.8807 9.21026 17.8385 8.90427 18.4762L8.90193 18.477Z" fill="#F86B21"/>
<path fill-rule="evenodd" clip-rule="evenodd" d="M33.9294 21.5002C35.3547 21.5002 36.0729 21.3191 37.4561 21.3316C41.025 21.3636 40.7416 20.7165 41.8235 17.9727C42.0491 17.3998 42.7852 15.6692 42.8313 15.1173H43.1669C43.2122 15.6622 43.8835 17.2351 44.1255 17.8541C45.2074 20.6182 44.967 21.3636 48.3727 21.3332C49.8332 21.3199 50.6013 21.5002 52.0689 21.5002L48.1792 24.6656C45.8616 26.4984 48.2791 28.9339 48.5413 32.082C42.9468 29.122 44.3831 27.5748 40.1429 30.4022C39.5575 30.7925 38.0735 31.9165 37.4553 32.082C37.5193 31.3077 37.9377 30.0813 38.1617 29.2609C39.456 24.5118 39.1375 26.0277 33.9278 21.5002H33.9294ZM38.6324 18.477C37.0916 18.477 34.8161 18.6315 33.4009 18.7884C32.4798 18.8907 31.6328 18.7244 30.9131 18.9883C29.7477 19.4153 28.953 21.181 30.8077 22.6071C31.4658 23.113 31.9771 23.5454 32.5859 24.0208C33.3072 24.5844 35.5382 26.2689 35.9456 26.8762C35.5389 28.6208 34.098 32.783 34.098 34.2669C34.098 35.238 35.0651 36.1146 35.9456 36.1146C36.9386 36.1146 41.4317 32.7455 42.9999 31.9157L46.3924 34.0655C47.0785 34.5229 49.2298 36.1146 50.0541 36.1146C51.04 36.1146 51.9018 35.2809 51.9018 33.9312C51.9018 33.1452 51.243 31.2881 51.0268 30.4389C50.7411 29.3164 50.3219 28.026 50.0541 26.8762C50.4429 26.2962 51.0361 25.9098 51.6388 25.4368L55.0952 22.6782C57.1029 21.1435 56.1967 19.4582 55.2076 19.0351C54.6487 18.7963 48.2666 18.477 47.3673 18.477C46.7405 17.1703 46.237 15.5037 45.6875 14.1095C45.0825 12.5757 44.7594 10.582 42.9999 10.582C40.7237 10.582 40.2054 15.1993 38.6324 18.4762V18.477Z" fill="#F86B21"/>
<path fill-rule="evenodd" clip-rule="evenodd" d="M85.9982 20.3941V20.9226C85.9124 21.5135 85.5377 22.1622 84.7524 22.7734C84.1225 23.2636 83.6955 23.6235 83.0702 24.1145C82.4434 24.607 82.0149 24.9677 81.3904 25.4579C80.8143 25.9098 80.3436 26.3314 79.7831 26.706C80.189 28.4483 80.7183 30.207 81.2241 31.9837C81.4801 32.8845 81.8189 33.8844 81.6472 34.6127C81.4068 35.6283 80.3865 36.1122 79.7831 36.1122C78.6489 36.1122 73.2675 31.8517 72.7289 31.9134L68.1241 34.8672C67.5231 35.2614 66.4677 36.0951 65.6934 36.0615C64.8971 36.0271 63.8262 35.2309 63.8262 34.2646C63.8262 33.2139 65.3827 28.1244 65.6738 26.8739C65.1821 26.1393 63.147 24.6421 62.3368 23.9966C61.7513 23.5306 61.2424 23.1098 60.6562 22.654C58.828 21.2333 59.319 19.7283 60.5406 19.0531C61.0972 18.7455 67.6074 18.4762 68.53 18.4762C68.5925 17.7237 69.7618 14.9292 70.1131 14.0128C70.6384 12.642 71.0069 10.582 72.7289 10.582C73.7116 10.582 74.2776 11.1854 74.6054 11.8966L77.0955 18.4762C77.937 18.4762 84.48 18.7923 84.9515 19.0187C85.5018 19.2826 85.9061 19.7845 85.9975 20.3941H85.9982ZM78.2719 32.082C72.2199 28.88 74.4821 27.6638 69.8813 30.41C69.2279 30.8003 67.8455 31.9056 67.1859 32.082C67.452 30.9384 67.7432 29.9221 68.0601 28.7574C68.8634 25.8115 69.3239 25.7592 64.9541 22.5564C64.4709 22.202 64.1384 21.9655 63.8269 21.5002C65.2593 21.5002 66.0345 21.3215 67.5239 21.334C71.0014 21.3636 70.6939 20.2544 72.2246 16.2921C72.4401 15.734 72.4674 15.2641 72.8967 14.9487C72.9506 15.6005 74.6757 20.1194 75.0285 20.5432C75.6475 21.2879 76.7864 21.3457 78.1017 21.3332C79.5638 21.3191 80.3303 21.4995 81.7986 21.4995C81.4887 21.9218 80.0438 22.96 79.4998 23.4002C79.0861 23.7351 78.8011 23.9685 78.3866 24.3026C77.976 24.6328 77.5295 24.9044 77.2235 25.3236C76.2447 26.667 78.2344 30.4248 78.2711 32.082H78.2719Z" fill="#F86B21"/>
<path fill-rule="evenodd" clip-rule="evenodd" d="M28.2186 8.39915C28.2186 9.27732 30.1256 10.6387 30.7789 11.214L32.7148 12.9734C33.6039 13.8579 34.9621 15.4128 36.0675 14.4043C36.3297 14.1654 36.6201 13.587 36.5592 13.1608C36.4429 12.3466 35.386 11.6792 34.8185 11.2046C34.4469 10.8939 34.2409 10.6121 33.8888 10.2866C33.4806 9.90804 33.2901 9.85262 32.8756 9.45217L30.9522 7.68022C29.6447 6.3532 28.2178 7.33207 28.2178 8.39915H28.2186Z" fill="#F86B21"/>
<path fill-rule="evenodd" clip-rule="evenodd" d="M56.4364 7.05469C55.6465 7.05469 55.5239 7.19519 55.0462 7.67995L49.7577 12.4744C48.9372 13.5469 49.8958 15.838 52.0503 14.091L57.3255 9.28563C58.032 8.4621 57.7408 7.05547 56.4364 7.05547V7.05469Z" fill="#F86B21"/>
<path fill-rule="evenodd" clip-rule="evenodd" d="M41.6558 1.34341V6.55077C41.6558 7.95584 44.3434 7.95584 44.3434 6.55077V1.34341C44.3434 0.512071 43.772 0.0640089 43.1561 0H42.843C42.2272 0.0647895 41.6558 0.512071 41.6558 1.34341Z" fill="#F86B21"/>
</svg>
