<svg width="80" height="87" viewBox="0 0 80 87" fill="none" xmlns="http://www.w3.org/2000/svg">
<path fill-rule="evenodd" clip-rule="evenodd" d="M37.1518 26.3376C37.1518 24.2237 40.5285 23.931 40.5285 26.3376C40.5285 28.6708 37.1518 28.4176 37.1518 26.3376ZM32.1101 86.4437H31.8052C29.9436 86.3886 28.0108 85.3549 26.0344 84.5607C24.553 83.9653 14.1903 79.8903 13.5978 79.2647C12.8621 78.4879 13.3823 77.1576 14.1901 77.1576C15.8912 77.1576 17.4439 78.1966 18.9654 78.7978L27.4304 82.3203C29.3413 83.1233 31.4073 84.3682 32.929 83.5716C33.9218 83.0517 34.2691 81.8418 34.6924 80.7766C37.493 73.7298 40.5536 66.9641 43.3508 59.8882C45.5856 54.2343 48.0792 48.692 50.3209 43.0522C51.8482 39.2095 52.3619 40.0159 50.9253 36.5391C50.6178 35.795 50.2827 35.2677 50.0073 34.5871C49.6817 33.7831 49.384 33.3019 49.0261 32.5294L46.2693 26.5068C45.1975 24.4039 43.9955 19.987 41.542 19.4155C41.542 20.5546 41.2042 21.5238 41.2042 22.7924C42.2766 23.0787 43.2301 24.9281 43.2301 26.3379C43.2301 28.4036 41.4017 30.5589 39.3469 30.5589H38.3339C36.5999 30.5589 34.6195 28.5785 34.6195 26.8445V25.8315C34.6195 23.738 36.6913 22.1129 38.6717 21.9483C38.6717 21.1848 38.7833 19.5493 39.0094 19.078C36.5805 19.6437 26.2059 23.8857 23.0668 25.0842C22.2861 25.3822 21.6811 25.5237 21.0793 25.967C20.0563 26.7212 18.2353 31.9151 17.6149 33.4769L5.60543 62.495C5.04023 63.9016 2.54056 69.0799 2.54056 70.2357C2.54056 72.4072 4.54422 72.7683 6.08182 73.448C6.84055 73.7836 7.6934 74.1232 8.45557 74.4512C11.6636 75.8313 9.41949 77.327 8.78775 77.327C8.46246 77.327 4.01374 75.4718 3.33481 75.1823C2.41834 74.7916 1.64981 74.2977 1.08699 73.5469C-1.02404 70.7302 0.390293 68.1937 1.54986 65.3621C2.08961 64.0442 2.6853 62.7031 3.24017 61.3118C3.79 59.933 4.39708 58.5963 4.97766 57.1401C5.54684 55.7125 6.03013 54.4551 6.65021 53.0721C8.83785 48.1926 17.2838 26.433 18.7188 24.62C19.6236 23.4769 20.8657 23.1017 22.3664 22.527C25.1784 21.4499 37.6234 16.4153 39.3472 16.3771C39.3472 14.3533 40.7787 7.93273 41.3492 6.22307C42.1899 3.70378 44.1747 0 47.2823 0C49.6966 0 51.4203 1.23512 52.0348 3.35172C53.1583 7.22092 50.4983 11.1723 48.7496 14.2992C47.8745 15.8641 46.7611 17.3421 45.9316 18.9099C47.0617 19.004 50.8683 20.3897 52.0311 20.7458C58.7507 22.8024 58.3647 22.1977 60.958 27.3519C61.3967 28.2236 61.7331 29.0799 62.1957 29.9974C62.7304 31.0575 64.4202 33.9366 61.9709 33.9366C60.8917 33.9366 60.7512 33.0177 60.3387 32.1919C59.9328 31.3791 59.6483 30.6461 59.2719 29.8821C58.7226 28.7668 57.8363 26.2708 56.9843 25.4161C55.7818 24.2101 49.1022 22.9037 47.1131 21.9491C47.3607 23.0124 52.2047 33.1519 52.7424 34.2165C53.6647 36.0431 54.3733 37.3782 54.3733 39.508C54.3733 41.0318 51.6963 46.5259 50.9961 48.2872L45.1593 62.3733C44.7359 63.4356 44.3985 64.1879 43.9785 65.2446L41.5809 70.9696C41.2487 71.7344 41.4349 71.6803 41.7522 72.3847C42.7813 74.6675 45.1492 80.0945 46.2097 81.9457C47.7377 84.6132 50.3129 82.8574 52.4574 81.828C53.1464 81.4971 53.6352 81.3317 54.3171 80.9863L59.8323 78.3973C63.481 76.5598 67.2142 75.0569 70.8615 73.2182C75.0172 71.1233 78.6351 70.8943 76.4348 66.5781C74.2005 62.1957 72.4113 57.6276 70.1876 53.2402C69.8241 52.5231 69.638 51.9955 69.2891 51.2683L67.4278 47.3893C67.0911 46.7173 66.927 46.2027 66.5869 45.5288L64.7826 41.7617C64.4335 41.0342 64.2482 40.5072 63.8842 39.7898C63.6204 39.2699 63.1528 38.4746 63.1528 37.8198C63.1528 37.4267 63.9706 36.638 64.5035 36.638C65.7219 36.638 66.4279 39.1427 66.9215 40.1294C67.5827 41.451 68.1415 42.6726 68.783 44.0084L73.4513 54.0288C73.7941 54.7054 74.0053 55.2518 74.3516 55.9988L76.2107 59.88C76.9496 61.3455 79.6987 67.033 79.6987 68.0417C79.6987 72.2394 77.8902 72.8796 74.2405 74.571L69.9604 76.5381C68.0227 77.5081 66.158 78.2668 64.2222 79.2416C62.2843 80.2175 60.419 80.9667 58.4829 81.9441L53.9783 84.0238C51.5817 85.2338 49.0905 86.9066 46.2054 85.4957C43.8272 84.3324 43.066 81.3879 41.9929 79.0717C41.7535 78.5547 41.5626 78.2411 41.3145 77.7239C40.9038 76.8684 40.5065 75.4424 39.8535 74.9642C39.8042 75.5567 39.3925 76.2788 39.1783 76.8215C38.4105 78.7644 36.659 83.6291 35.4268 84.8886C34.3531 85.9859 33.2452 86.4114 32.1103 86.4453L32.1101 86.4437ZM43.7365 17.3893C43.0387 17.2268 42.7092 16.9073 41.8792 16.7141C42.4176 15.5919 42.8182 6.15281 45.9027 3.34721C47.4018 1.98351 49.6457 2.31463 49.6457 5.23317C49.6457 8.4009 45.2147 15.1817 43.7365 17.3895V17.3893Z" fill="#F86B21"/>
<path fill-rule="evenodd" clip-rule="evenodd" d="M14.0213 51.8317C14.0213 55.593 14.3304 58.1412 16.6707 61.3386C17.0941 61.9171 17.7982 62.7657 18.3377 63.2172C21.2183 65.628 23.8076 67.1959 28.2036 67.1959C33.3312 67.1959 37.5652 64.5103 40.0246 60.7824C40.2733 60.4052 41.0007 59.3162 41.115 58.8215C41.3809 57.6717 40.6025 57.2345 39.5156 57.2345C38.817 57.2345 38.4425 58.5121 37.5875 59.696C33.0343 66.0016 24.0486 65.6991 19.9066 61.1414C19.1365 60.2941 18.0739 58.8941 17.6347 57.8416C12.1393 44.6736 29.2258 35.1593 37.5896 46.1598C38.4027 47.2292 39.5039 49.7427 39.6633 51.346C39.791 52.6321 39.4753 53.6069 40.4355 54.1355C41.3509 54.6392 42.3856 53.8831 42.3856 52.8447C42.3856 50.8028 41.8223 48.5953 41.1497 47.1585C40.7364 46.2754 40.4374 45.7873 39.9212 45.01C38.9687 43.5748 38.5636 43.21 37.4518 42.2455C35.7328 40.7541 33.9683 39.8105 31.717 39.2005C27.3099 38.0065 21.9795 39.2909 18.6193 42.4168C16.2434 44.627 14.0208 48.3965 14.0208 51.8317H14.0213Z" fill="#F86B21"/>
<path fill-rule="evenodd" clip-rule="evenodd" d="M28.5412 47.4421C26.0829 47.4421 24.489 48.5678 24.489 50.9876C24.489 53.1186 26.266 54.0154 27.9296 54.4693C30.3569 55.1315 28.7 56.3902 28.5412 56.3902C27.3978 56.3902 26.8607 55.7412 25.6709 55.715C25.6709 52.328 21.1848 54.7285 23.6762 57.3719C24.5391 58.2876 25.1643 57.9625 25.1643 58.4164C25.1643 58.7732 24.0484 61.1178 26.1772 61.1178C27.0807 61.1178 27.292 60.5402 27.5041 59.9076C27.9921 58.4522 27.5539 59.2377 28.9105 58.9681C30.2606 58.6998 31.3534 57.7775 31.6853 56.4878C32.0657 55.0098 31.557 53.5623 30.5758 52.8357C30.0926 52.4778 29.4879 52.2241 28.859 52.02C27.0303 51.4261 27.0354 51.5322 27.3591 50.1433C27.5571 50.0908 27.8193 49.9744 27.8657 49.9744C28.1109 49.9744 30.2352 50.577 30.3805 50.6674C31.0713 51.0977 30.697 52.3381 31.9178 52.3381C33.3401 52.3381 33.9692 50.4211 32.7229 49.0004C32.2341 48.4432 31.7126 48.4238 31.0734 48.1174C31.5684 47.0856 31.9767 45.2471 30.2294 45.2471C28.7668 45.2471 28.9757 46.5357 28.5409 47.4419L28.5412 47.4421Z" fill="#F86B21"/>
<path fill-rule="evenodd" clip-rule="evenodd" d="M60.2827 49.6369C60.2827 50.2008 62.0107 53.7747 62.363 54.4788C62.7909 55.334 63.0517 55.8626 63.4417 56.7767L67.8796 66.1834C68.5232 67.4596 68.6107 68.2088 69.7374 68.2088C70.3861 68.2088 70.6685 67.9668 70.8919 67.4907C71.3357 66.5456 70.0622 64.8017 69.5198 63.5303L67.7698 59.7085C67.5217 59.1916 67.3456 58.8726 67.0903 58.362L64.6723 53.1824C63.7495 51.3482 62.9494 48.4551 61.6334 48.4551C60.9107 48.4551 60.2827 48.9755 60.2827 49.6369Z" fill="#F86B21"/>
<path fill-rule="evenodd" clip-rule="evenodd" d="M63.997 71.2479C66.3085 71.2479 64.9305 68.7167 64.3907 67.6464L61.0557 60.5135C60.706 59.6665 60.2901 59.0162 59.9473 58.2453C59.3341 56.8665 57.1292 51.4941 56.2308 51.4941C53.0962 51.4941 55.5012 54.7449 56.1107 56.1727C56.537 57.1716 56.8514 57.7564 57.3023 58.6957L58.5404 61.3409C58.9865 62.2322 59.2702 62.9822 59.7206 63.8751C60.1835 64.7923 60.5199 65.6489 60.9584 66.5205C61.3969 67.3922 61.7336 68.2482 62.1962 69.166C62.6397 70.0459 62.8804 71.2482 63.9976 71.2482L63.997 71.2479Z" fill="#F86B21"/>
</svg>
